<svg width="140" height="32" viewBox="0 0 140 32" fill="none" xmlns="http://www.w3.org/2000/svg">
<path fill-rule="evenodd" clip-rule="evenodd" d="M59.2771 4.72057C59.2771 6.85391 60.6388 8.17022 63.4984 8.17022C66.6303 8.17022 68.6729 6.35462 68.6729 3.40426C68.6729 1.31631 67.2658 0 64.4516 0C61.2743 0 59.2771 1.8156 59.2771 4.72057ZM59.1863 10.8028L56.6899 31.2738H64.5424L67.0842 10.8028H59.1863ZM67.9349 31.2739L71.6569 1.08946H79.5094L75.7874 31.2739H67.9349ZM79.1809 31.2739L82.9029 1.08946H90.7554L87.0334 31.2739H79.1809ZM32.3221 31.2739L36.044 1.08946H43.8965L42.3987 13.3448C43.6242 11.3022 46.1207 10.0767 48.7533 10.0767C53.1561 10.0767 55.7434 12.6185 55.0625 18.3831L53.4739 31.2739H45.576L46.9831 20.1079C47.21 17.9746 46.393 16.9306 44.8043 16.9306C43.1249 16.9306 41.8086 18.2469 41.5363 20.3803L40.1745 31.2739H32.3221ZM14.3887 31.9546C23.1036 31.9546 29.7305 27.3702 31.5461 20.834L23.0128 19.6085C22.0596 22.7404 18.9731 24.8284 15.1603 24.8284C11.166 24.8284 8.62412 22.1504 8.62412 18.1106C8.62412 12.7092 12.2553 8.6695 17.2029 8.6695C21.0156 8.6695 23.4213 10.8936 23.4213 14.1163L31.9546 12.7546C32.2724 5.99148 26.7348 1.49786 18.156 1.49786C7.76171 1.49786 0 8.94184 0 18.9731C0 26.8709 5.62838 31.9546 14.3887 31.9546ZM139.852 25.373C139.625 25.4638 139.262 25.5092 138.944 25.5092C138.924 25.5092 138.904 25.5088 138.884 25.508C138.283 25.4827 137.903 25.0774 137.991 24.3745L138.854 17.4298C139.398 12.9361 136.448 9.9404 129.367 9.9404C123.386 9.9404 119.125 12.3244 117.853 16.1496C117.754 16.4467 117.673 16.7526 117.611 17.0666L125.282 18.4737C125.296 18.3455 125.319 18.2205 125.351 18.0994C125.635 17.0202 126.632 16.2496 128.142 16.2496C129.231 16.2496 129.866 16.6581 129.866 17.4298C129.866 18.383 129.14 18.8823 127.96 19.0638L124.056 19.6085C118.882 20.3347 116.113 22.922 116.113 26.9163C116.113 29.9574 118.564 32 122.422 32C125.224 32 127.636 31.1888 129.275 29.5117C129.574 29.2051 129.848 28.8697 130.093 28.505C130.093 28.9487 130.181 29.3582 130.355 29.7274C130.981 31.0574 132.724 31.8638 135.495 31.8638C136.947 31.8638 138.49 31.5007 139.171 31.1376L139.852 25.373ZM138.773 26.4485C138.308 26.4141 137.836 26.2356 137.486 25.8398C137.092 25.3929 136.983 24.8141 137.053 24.2574L137.915 17.316L137.915 17.3141C138.157 15.3153 137.622 13.7863 136.36 12.723C135.049 11.6172 132.802 10.886 129.367 10.886C123.661 10.886 119.95 13.1049 118.795 16.3224L124.599 17.3871C124.804 16.9127 125.12 16.4907 125.536 16.1517C126.22 15.595 127.123 15.304 128.142 15.304C128.781 15.304 129.427 15.4202 129.94 15.7659C130.506 16.1467 130.812 16.7412 130.812 17.4298C130.812 18.185 130.507 18.8205 129.951 19.2708C129.438 19.6869 128.773 19.8954 128.104 19.9984L128.091 20.0004L124.188 20.5449C121.718 20.8915 119.938 21.6676 118.786 22.7315C117.658 23.7737 117.059 25.1589 117.059 26.9163C117.059 28.1605 117.55 29.1589 118.418 29.865C119.304 30.5858 120.652 31.0544 122.422 31.0544C125.531 31.0544 127.949 29.9969 129.309 27.9769L131.039 25.4065V28.505C131.039 29.1894 131.328 29.7364 131.978 30.1552C132.675 30.6037 133.821 30.9182 135.495 30.9182C136.147 30.9182 136.831 30.836 137.429 30.7112C137.771 30.6398 138.065 30.5587 138.297 30.48L138.773 26.4485ZM129.231 23.5574C129.049 24.9645 128.278 25.8723 126.871 25.8723C126.008 25.8723 125.418 25.4638 125.418 24.6922C125.418 23.739 126.144 22.9674 127.234 22.7858L129.367 22.4227L129.231 23.5574ZM130.169 23.6784C130.061 24.5153 129.764 25.3089 129.188 25.9016C128.595 26.5124 127.793 26.818 126.871 26.818C126.305 26.818 125.713 26.6856 125.24 26.3181C124.737 25.9262 124.473 25.346 124.473 24.6922C124.473 23.187 125.627 22.0955 127.077 21.8533L127.078 21.853L130.457 21.278L130.169 23.6784ZM118.418 10.6668L110.656 19.881L116.103 31.2739H105.891L102.94 24.3292H100.716L99.8536 31.2739H91.0026L94.7245 1.08946H103.576L101.624 16.8852H103.939L108.069 10.6668H118.418ZM109.54 19.7384L114.603 30.3283H106.516L103.566 23.3836H99.8806L99.0182 30.3283H92.072L95.5607 2.03508H102.506L100.554 17.8308H104.446L108.576 11.6124H116.385L109.54 19.7384Z" fill="#403E3D"/>
</svg>
